<svg width="560" height="336" xmlns="http://www.w3.org/2000/svg">
  <defs>
    <marker id="a" markerWidth="8" markerHeight="6" refX="7" refY="3" orient="auto">
      <path d="M0,0 L0,6 L8,3 z" fill="#555"/>
    </marker>
  </defs>
  <style>
    text { font-family: 'Hiragino Sans', 'Yu Gothic', 'Meiryo', sans-serif; fill: #222; }
  </style>

  <!-- ===== classic mode section ===== -->
  <rect x="0" y="0" width="560" height="152" fill="#efefef"/>
  <rect x="0" y="0" width="560" height="32" fill="#aaa"/>
  <text x="280" y="21" text-anchor="middle" font-size="13" fill="white" font-weight="bold">classic モード</text>

  <!-- Row 1 -->
  <text x="90" y="62" text-anchor="end" font-size="11" fill="#555">リクエスト 1</text>
  <rect x="96" y="46" width="108" height="28" rx="3" fill="#888" stroke="#555" stroke-width="1"/>
  <text x="150" y="65" text-anchor="middle" font-size="12" fill="white">初期化</text>
  <line x1="204" y1="60" x2="222" y2="60" stroke="#555" stroke-width="1.5" marker-end="url(#a)"/>
  <rect x="224" y="46" width="96" height="28" rx="3" fill="#d0d0d0" stroke="#888" stroke-width="1"/>
  <text x="272" y="65" text-anchor="middle" font-size="12">処理</text>
  <line x1="320" y1="60" x2="338" y2="60" stroke="#555" stroke-width="1.5" marker-end="url(#a)"/>
  <text x="344" y="65" font-size="11" fill="#555">レスポンス</text>

  <!-- Row 2 -->
  <text x="90" y="98" text-anchor="end" font-size="11" fill="#555">リクエスト 2</text>
  <rect x="96" y="82" width="108" height="28" rx="3" fill="#888" stroke="#555" stroke-width="1"/>
  <text x="150" y="101" text-anchor="middle" font-size="12" fill="white">初期化</text>
  <line x1="204" y1="96" x2="222" y2="96" stroke="#555" stroke-width="1.5" marker-end="url(#a)"/>
  <rect x="224" y="82" width="96" height="28" rx="3" fill="#d0d0d0" stroke="#888" stroke-width="1"/>
  <text x="272" y="101" text-anchor="middle" font-size="12">処理</text>
  <line x1="320" y1="96" x2="338" y2="96" stroke="#555" stroke-width="1.5" marker-end="url(#a)"/>
  <text x="344" y="101" font-size="11" fill="#555">レスポンス</text>

  <!-- Row 3 -->
  <text x="90" y="134" text-anchor="end" font-size="11" fill="#555">リクエスト 3</text>
  <rect x="96" y="118" width="108" height="28" rx="3" fill="#888" stroke="#555" stroke-width="1"/>
  <text x="150" y="137" text-anchor="middle" font-size="12" fill="white">初期化</text>
  <line x1="204" y1="132" x2="222" y2="132" stroke="#555" stroke-width="1.5" marker-end="url(#a)"/>
  <rect x="224" y="118" width="96" height="28" rx="3" fill="#d0d0d0" stroke="#888" stroke-width="1"/>
  <text x="272" y="137" text-anchor="middle" font-size="12">処理</text>
  <line x1="320" y1="132" x2="338" y2="132" stroke="#555" stroke-width="1.5" marker-end="url(#a)"/>
  <text x="344" y="137" font-size="11" fill="#555">レスポンス</text>

  <!-- ===== separator ===== -->
  <line x1="0" y1="153" x2="560" y2="153" stroke="#bbb" stroke-width="1"/>

  <!-- ===== Workerモード section ===== -->
  <rect x="0" y="154" width="560" height="182" fill="#fafafa"/>
  <rect x="0" y="154" width="560" height="32" fill="#aaa"/>
  <text x="280" y="175" text-anchor="middle" font-size="13" fill="white" font-weight="bold">Workerモード</text>

  <!-- Boot row -->
  <text x="90" y="208" text-anchor="end" font-size="11" fill="#777">起動時</text>
  <rect x="96" y="192" width="108" height="28" rx="3" fill="#888" stroke="#555" stroke-width="1"/>
  <text x="150" y="211" text-anchor="middle" font-size="11" fill="white">初期化（1 回のみ）</text>

  <!-- dotted vertical line: init effect persists -->
  <line x1="150" y1="220" x2="150" y2="328" stroke="#bbb" stroke-width="1.5" stroke-dasharray="4,3"/>

  <!-- Worker row 1 -->
  <text x="90" y="244" text-anchor="end" font-size="11" fill="#555">リクエスト 1</text>
  <rect x="224" y="228" width="96" height="28" rx="3" fill="#d0d0d0" stroke="#888" stroke-width="1"/>
  <text x="272" y="247" text-anchor="middle" font-size="12">処理</text>
  <line x1="320" y1="242" x2="338" y2="242" stroke="#555" stroke-width="1.5" marker-end="url(#a)"/>
  <text x="344" y="247" font-size="11" fill="#555">レスポンス</text>

  <!-- Worker row 2 -->
  <text x="90" y="280" text-anchor="end" font-size="11" fill="#555">リクエスト 2</text>
  <rect x="224" y="264" width="96" height="28" rx="3" fill="#d0d0d0" stroke="#888" stroke-width="1"/>
  <text x="272" y="283" text-anchor="middle" font-size="12">処理</text>
  <line x1="320" y1="278" x2="338" y2="278" stroke="#555" stroke-width="1.5" marker-end="url(#a)"/>
  <text x="344" y="283" font-size="11" fill="#555">レスポンス</text>

  <!-- Worker row 3 -->
  <text x="90" y="316" text-anchor="end" font-size="11" fill="#555">リクエスト 3</text>
  <rect x="224" y="300" width="96" height="28" rx="3" fill="#d0d0d0" stroke="#888" stroke-width="1"/>
  <text x="272" y="319" text-anchor="middle" font-size="12">処理</text>
  <line x1="320" y1="314" x2="338" y2="314" stroke="#555" stroke-width="1.5" marker-end="url(#a)"/>
  <text x="344" y="319" font-size="11" fill="#555">レスポンス</text>
</svg>
